<svg width="24" height="24" viewBox="0 0 24 24" fill="none" xmlns="http://www.w3.org/2000/svg">
<path d="M19.5 9H18.75C18.3356 9 18 9.33562 18 9.75V12C18 15.5063 14.977 18.3197 11.4005 17.9709C8.28328 17.6667 6 14.8645 6 11.7328V9.75C6 9.33562 5.66438 9 5.25 9H4.5C4.08562 9 3.75 9.33562 3.75 9.75V11.6325C3.75 15.8344 6.74859 19.5802 10.875 20.1492V21.75H8.25C7.83563 21.75 7.5 22.0856 7.5 22.5V23.25C7.5 23.6644 7.83563 24 8.25 24H15.75C16.1644 24 16.5 23.6644 16.5 23.25V22.5C16.5 22.0856 16.1644 21.75 15.75 21.75H13.125V20.167C17.1427 19.6158 20.25 16.1672 20.25 12V9.75C20.25 9.33562 19.9144 9 19.5 9ZM12 16.5C14.4853 16.5 16.5 14.4853 16.5 12H12.5002C12.2241 12 12 11.8322 12 11.625V10.875C12 10.6678 12.2241 10.5 12.5002 10.5H16.5V9H12.5002C12.2241 9 12 8.83219 12 8.625V7.875C12 7.66781 12.2241 7.5 12.5002 7.5H16.5V6H12.5002C12.2241 6 12 5.83219 12 5.625V4.875C12 4.66781 12.2241 4.5 12.5002 4.5H16.5C16.5 2.01469 14.4853 0 12 0C9.51469 0 7.5 2.01469 7.5 4.5V12C7.5 14.4853 9.51469 16.5 12 16.5Z" fill="#666666"/>
</svg>
