<svg width="24" height="24" viewBox="0 0 24 24" fill="none" xmlns="http://www.w3.org/2000/svg">
<path d="M20.25 22.5H3.75C2.50781 22.5 1.5 21.4922 1.5 20.25V3.75C1.5 2.50781 2.50781 1.5 3.75 1.5H20.25C21.4922 1.5 22.5 2.50781 22.5 3.75V20.25C22.5 21.4922 21.4922 22.5 20.25 22.5ZM12.6609 8.33906L6.3 14.7L6.00469 17.3766C5.96719 17.7328 6.26719 18.0375 6.62813 18L9.30469 17.7047L15.6656 11.3438C15.7734 11.2359 15.7734 11.0578 15.6656 10.9453L13.0641 8.34375C12.9469 8.23125 12.7688 8.23125 12.6609 8.33906ZM17.6719 7.73906L16.2609 6.32812C15.8203 5.8875 15.1078 5.8875 14.6719 6.32812L13.5891 7.41094C13.4812 7.51875 13.4812 7.69688 13.5891 7.80938L16.1906 10.4109C16.2984 10.5188 16.4766 10.5188 16.5891 10.4109L17.6719 9.32812C18.1078 8.89219 18.1078 8.17969 17.6719 7.73906Z" fill="black"/>
</svg>
