<svg width="15" height="14" viewBox="0 0 15 14" fill="none" xmlns="http://www.w3.org/2000/svg">
<path d="M9.04685 12.9093L8.3531 13.6031C8.05935 13.8968 7.58435 13.8968 7.29373 13.6031L1.21873 7.5312C0.924976 7.23745 0.924976 6.76245 1.21873 6.47183L7.29373 0.396826C7.58748 0.103076 8.06248 0.103076 8.3531 0.396826L9.04685 1.09058C9.34373 1.38745 9.33748 1.87183 9.03435 2.16245L5.26873 5.74995H14.25C14.6656 5.74995 15 6.08433 15 6.49995V7.49995C15 7.91558 14.6656 8.24995 14.25 8.24995H5.26873L9.03435 11.8375C9.3406 12.1281 9.34685 12.6125 9.04685 12.9093Z" fill="black"/>
</svg>
